<?xml version="1.0" encoding="UTF-8" standalone="no"?>
<svg
   xmlns:dc="http://purl.org/dc/elements/1.1/"
   xmlns:cc="http://creativecommons.org/ns#"
   xmlns:rdf="http://www.w3.org/1999/02/22-rdf-syntax-ns#"
   xmlns:svg="http://www.w3.org/2000/svg"
   xmlns="http://www.w3.org/2000/svg"
   width="500"
   height="500"
   viewBox="0 0 500 500"
   version="1.1"
   id="svg16">
  <metadata
     id="metadata20">
    <rdf:RDF>
      <cc:Work
         rdf:about="">
        <dc:format>image/svg+xml</dc:format>
        <dc:type
           rdf:resource="http://purl.org/dc/dcmitype/StillImage" />
        <dc:title></dc:title>
      </cc:Work>
    </rdf:RDF>
  </metadata>
  <defs
     id="defs12">
    <style
       id="style10">
      .cls-1 {
        fill: #2a2a2a;
        fill-rule: evenodd;
      }
    </style>
  </defs>
  <path
     id="Rectángulo_1"
     d="m 193.46289,4.0019531 c -10.22932,0.1142364 -19.59675,10.5700629 -36.95312,4.0625 -8.509,-3.189 -23.63129,1.249125 -28.23829,10.9531249 -2.873,6.052 4.7176,10.252922 -0.9414,12.044922 C 93.899078,41.6485 70.342,58.100781 44.5,72.675781 c -4.117,2.325 -27.677453,0.842157 -31.064453,3.285157 -22.5760001,16.29 -15.6012658,100.438202 13.177734,131.408202 54.764,58.93 149.745799,42.38681 162.841799,31.75781 17.028,-13.82 -51.47749,-13.87411 -79.27149,-78.28711 -12.163996,-28.189 25.72719,-71.140684 35.86719,-75.429684 -5.35,2.263 5.12008,-7.892734 11.95508,6.947266 12.06111,26.190218 39.07101,71.189208 71.14062,122.466798 -12.3548,20.30372 -25.93602,42.80429 -40.9414,68.10742 -107.676002,181.569 -98.505283,114.96764 -112.613283,171.68164 -9.853,39.588 17.54839,48.98655 27.900393,29.81055 28.34181,-52.50299 91.41193,-149.34912 146.52148,-236.45508 55.11039,87.10617 118.18259,183.95237 146.52539,236.45508 10.351,19.176 37.75439,9.77745 27.90039,-29.81055 -14.106,-56.714 -4.94018,9.88641 -112.61718,-171.68359 -15.00579,-25.30334 -28.5863,-47.8033 -40.94141,-68.10742 32.0681,-51.27572 59.07783,-96.27237 71.13867,-122.460942 6.834,-14.839 17.30508,-4.684265 11.95508,-6.947266 10.14,4.286 48.02619,47.238738 35.86719,75.427738 -27.794,64.413 -96.29849,64.46811 -79.27149,78.28711 13.096,10.629 108.07589,27.17118 162.83789,-31.75782 28.779,-30.971 35.75569,-115.118199 13.17969,-131.408199 -3.387,-2.444 -26.9475,-0.964157 -31.0625,-3.285157 -25.843,-14.578 -49.40517,-31.025421 -82.82617,-41.607422 -5.659,-1.793 1.93159,-5.994875 -0.94141,-12.046874 -4.607,-9.7040005 -19.73028,-14.1411724 -28.23828,-10.9511724 -24.148,9.0530004 -32.83272,-14.7265937 -49.88672,2.1914064 -14.193,14.079 23.77266,53.175797 24.47266,51.466797 -10.26381,25.138662 -32.49228,60.896401 -68.0918,118.955081 -35.60071,-58.06107 -57.82797,-93.821405 -68.08984,-118.960941 0.7,1.709 38.66465,-37.38975 24.47265,-51.46875 -4.79671,-4.7581871 -8.93081,-6.298607 -12.93359,-6.2539059 z" />
</svg>
