<svg xmlns="http://www.w3.org/2000/svg" width="500" height="500" viewBox="0 0 500 500">
  <defs>
    <style>
      .cls-1 {
        fill: #2a2a2a;
        fill-rule: evenodd;
      }
    </style>
  </defs>
  <path id="Rectángulo_1" data-name="Rectángulo 1" class="cls-1" d="M468.861,205.882c-64.128,59.373-175.353,42.707-190.689,32C258.232,223.955,338.453,223.9,371,159c14.243-28.4-30.126-71.678-42-76,6.265,2.28-6-7.952-14,7C274.855,165,93.487,392.891,35.677,485.035,23.555,504.357-8.534,494.888,3,455c16.524-57.143,5.787,9.964,131.879-172.985C221.076,156.95,269.112,96.826,286.99,59.134c-0.817,1.722-45.278-37.673-28.659-51.858,19.972-17.047,30.143,6.915,58.42-2.207,9.963-3.214,27.672,1.256,33.067,11.034,3.365,6.1-5.524,10.331,1.1,12.137,39.142,10.667,66.734,27.24,97,41.928,4.818,2.339,32.408.848,36.374,3.31C510.73,89.891,502.562,174.68,468.861,205.882Z"/>
</svg>
