<svg id="mano_copia" data-name="mano copia" xmlns="http://www.w3.org/2000/svg" width="500" height="500" viewBox="0 0 500 500">
  <defs>
    <style>
      .cls-1 {
        fill-rule: evenodd;
      }
    </style>
  </defs>
  <path id="hand-extra" class="cls-1" d="M287.843,462.157s44.109-8.744,83.255-30.274c36.443-20.044,68.117-52.98,68.117-52.98s4.426-2.262,9.785,3.1c8.86,8.86,20.489,27.177,20.489,27.177s-29.85,31.114-68.117,52.98C360.27,485.644,310.549,500,310.549,500S295.072,483.12,289,473C283.785,464.308,287.843,462.157,287.843,462.157Z"/>
  <path id="hand-body" class="cls-1" d="M204.588,189.688s36.02-36.407,90.824-22.706c51.021,12.755,105.96,60.549,105.96,60.549s-11.767,50.715-7.569,75.686c4.3,25.58,39.77,40.84,30.275,52.98C363.242,433.978,273,435,273,435a159.447,159.447,0,0,0-38.137-33.391c-25.807-15.882-60.549-30.275-60.549-30.275s-13.457-17.647-7.569-52.98c3.354-20.122,43.955,17.763,60.549-45.412C236.419,238.206,204.588,189.688,204.588,189.688Z"/>
  <path id="pulgar" class="cls-1" d="M30.511,250.237s19.607-20.594,37.843-7.569c11.4,8.143,11.839,33.054,22.706,45.412C109.866,309.466,138,313,138,313a74.323,74.323,0,0,1,4,19c1.6,17.695,0,40,0,40s-56.744-12.867-81.215-46.077C32.546,287.6,30.511,250.237,30.511,250.237Z"/>
  <path id="índice" class="cls-1" d="M224.83,149.438c-8.357,17.048-27.81,17.544-27.81,17.544s-16.052-29.208-45.412-37.843C121.414,120.258,42.569,135,68.354,98.865c16.3-22.837,68.774-22.543,98.391-15.137C192.309,90.12,224.759,114.462,230,136,231.505,142.185,227.975,143.024,224.83,149.438Z"/>
  <path id="meñique" class="cls-1" d="M396.362,59.851c1.429,0.839,29.274,23.161,32.079,48.283,3.468,31.048-21.664,77.994-21.664,77.994s-11.284-.029-18.75-4.708c-6.319-3.96-9.012-12.692-9.012-12.692s18.352-27.591,18.049-52.084c-0.2-16.465-15.135-30.619-15.135-30.619s-13.5-7.981-10.9-14.861C379.479,48.764,394.142,58.547,396.362,59.851Z"/>
  <path id="anular" class="cls-1" d="M308.7,19.578c2.028,0.47,43.615,16.1,55.711,42.475C379.355,94.653,366,159,366,159s-14.729-2.249-25.429-5.024A26.99,26.99,0,0,1,327,146s11.011-38.585,2.177-65.052c-5.938-17.792-28.994-28.54-28.994-28.54S281,47.913,281.781,39.652C284.325,12.757,305.543,18.847,308.7,19.578Z"/>
  <path id="corazón" class="cls-1" d="M197.02,0.473c2.682-.06,59.628,5.171,83.254,30.274C309.474,61.772,311,139,311,139a278.162,278.162,0,0,1-30,2c-12.058,0-22-8-22-8s3.016-45.865-16.569-71.978C229.266,43.468,197.02,38.316,197.02,38.316s-25.39.518-27.087-8.623C164.405-.069,192.85.567,197.02,0.473Z"/>
</svg>
