<?xml version="1.0" encoding="UTF-8" standalone="no"?>
<svg
   xmlns:dc="http://purl.org/dc/elements/1.1/"
   xmlns:cc="http://creativecommons.org/ns#"
   xmlns:rdf="http://www.w3.org/1999/02/22-rdf-syntax-ns#"
   xmlns:svg="http://www.w3.org/2000/svg"
   xmlns="http://www.w3.org/2000/svg"
   xmlns:sodipodi="http://sodipodi.sourceforge.net/DTD/sodipodi-0.dtd"
   xmlns:inkscape="http://www.inkscape.org/namespaces/inkscape"
   id="Grupo_1"
   data-name="Grupo 1"
   width="500"
   height="500"
   viewBox="0 0 500 500"
   version="1.1"
   sodipodi:docname="helmet-ink.svg"
   inkscape:version="1.0.2 (e86c8708, 2021-01-15)">
  <metadata
     id="metadata93">
    <rdf:RDF>
      <cc:Work
         rdf:about="">
        <dc:format>image/svg+xml</dc:format>
        <dc:type
           rdf:resource="http://purl.org/dc/dcmitype/StillImage" />
        <dc:title></dc:title>
      </cc:Work>
    </rdf:RDF>
  </metadata>
  <sodipodi:namedview
     pagecolor="#ffffff"
     bordercolor="#666666"
     borderopacity="1"
     objecttolerance="10"
     gridtolerance="10"
     guidetolerance="10"
     inkscape:pageopacity="0"
     inkscape:pageshadow="2"
     inkscape:window-width="1357"
     inkscape:window-height="969"
     id="namedview91"
     showgrid="false"
     inkscape:zoom="1.3137812"
     inkscape:cx="241.89977"
     inkscape:cy="220.97339"
     inkscape:window-x="0"
     inkscape:window-y="25"
     inkscape:window-maximized="0"
     inkscape:current-layer="Grupo_1" />
  <defs
     id="defs78">
    <style
       id="style76">
      .cls-1 {
        fill-rule: evenodd;
      }
    </style>
  </defs>
  <path
     id="ojo"
     d="m 250,0 c 0,0 -20.24508,2.0545312 -28.08008,4.1445312 -7.72,2.0560001 -7.26172,11.4101568 -7.26172,11.4101568 L 230.21875,184.63477 250,185 269.78125,184.63477 285.3418,15.554688 c 0,0 0.45828,-9.3541568 -7.26172,-11.4101568 C 270.24508,2.0545312 250,0 250,0 Z M 197.45508,10.992188 C 192.04248,10.992744 146.81031,12.737578 85,68.455078 41.476,107.68408 48.6875,208.49219 48.6875,208.49219 c 0,0 40.998375,-12.61661 82.98438,-16.59961 40.975,-3.885 83.89673,-6.13839 83.92773,-5.90039 C 215.69961,186.70819 198,11 198,11 c 0,0 -0.18408,-0.0078 -0.54492,-0.0078 z m 105.08984,0 C 302.18408,10.99215 302,11 302,11 c 0,0 -17.69961,175.70819 -17.59961,174.99219 0.031,-0.238 42.95273,2.01539 83.92773,5.90039 41.986,3.983 82.98438,16.59961 82.98438,16.59961 0,0 7.2125,-100.80811 -36.3125,-140.037112 C 353.18969,12.737578 307.95752,10.992744 302.54492,10.992188 Z M 228.20508,207.74023 c -40.25911,-0.0783 -125.92066,1.71886 -167.066408,17.34961 -23.673,8.992 -13.484375,51.86328 -13.484375,51.86328 0,0 96.492093,-60.89317 159.746093,8.29883 C 254.00039,336.23495 225,398 225,398 c 0,0 -0.333,17.9 4,25 5.687,9.312 18.8,8.065 21,8 2.2,0.065 15.313,1.312 21,-8 4.333,-7.1 4,-25 4,-25 0,0 -29.00039,-61.76505 17.59961,-112.74805 63.254,-69.192 159.74609,-8.29883 159.74609,-8.29883 0,0 10.18863,-42.87128 -13.48437,-51.86328 C 384.00033,204.24884 250,208 250,208 c 0,0 -8.37522,-0.23366 -21.79492,-0.25977 z m -102.46875,61.65821 c -40.11619,0.15615 -68.179689,23.51768 -77.044924,67.71875 -9.448,47.105 27.965297,181.19525 42.529297,160.78125 5.902,-8.273 -4.977719,-48.75922 -7.261719,-71.57422 -4.422,-44.161 3.505875,-50.33441 18.671876,-43.56641 41.501,18.523 118.10106,-9.89409 119.28906,-20.74609 3.873,-35.371 -11.55139,-74.81192 -63.27539,-88.16992 -11.67339,-3.01478 -22.68251,-4.48317 -32.9082,-4.44336 z m 248.52734,0 c -10.22569,-0.0398 -21.23481,1.42858 -32.9082,4.44336 -51.724,13.358 -67.14839,52.79892 -63.27539,88.16992 1.188,10.852 77.78806,39.26909 119.28906,20.74609 15.166,-6.768 23.09388,-0.59459 18.67188,43.56641 -2.285,22.815 -13.16372,63.30122 -7.26172,71.57422 14.564,20.414 51.97729,-113.67625 42.52929,-160.78125 -8.86523,-44.20106 -36.92873,-67.5626 -77.04492,-67.71875 z m -240.81836,27.00781 c 5.00565,-0.0161 9.77719,0.48884 13.78907,1.29297 44.728,8.963 52.70945,42.92551 53.93945,54.97851 0.235,2.317 -28.32324,12.84532 -51.86524,12.44532 -19.982,-0.34 -54.613278,-8.21591 -54.613278,-38.37891 0,-23.56484 20.872688,-30.28034 38.749998,-30.33789 z m 233.10938,0 c 17.87731,0.0575 38.75,6.77305 38.75,30.33789 0,30.163 -34.63128,38.03891 -54.61328,38.37891 -23.542,0.4 -52.10024,-10.12832 -51.86524,-12.44532 1.23,-12.053 9.21145,-46.01551 53.93945,-54.97851 4.01188,-0.80413 8.78342,-1.30909 13.78907,-1.29297 z" />
  <g
     id="parte1_copia"
     data-name="parte1 copia" />
</svg>
