<svg xmlns="http://www.w3.org/2000/svg" width="500" height="500" viewBox="0 0 500 500">
  <defs>
    <style>
      .cls-1 {
        fill-rule: evenodd;
      }
    </style>
  </defs>
  <path id="Forma_1" data-name="Forma 1" class="cls-1" d="M0,250C0,387.851,112.149,500,250,500S500,387.851,500,250,387.851,0,250,0,0,112.149,0,250Zm20,0C20,123.177,123.177,20,250,20S480,123.177,480,250,376.823,480,250,480,20,376.823,20,250Z"/>
  <path id="Forma_2" data-name="Forma 2" class="cls-1" d="M462,250.5C462,367.308,367.309,462,250.5,462S39,367.308,39,250.5,133.693,39,250.5,39,462,133.692,462,250.5ZM250,185a65,65,0,1,0,65,65A65,65,0,0,0,250,185Z"/>
</svg>
